<?xml version="1.0" standalone="no"?>
<!DOCTYPE svg PUBLIC "-//W3C//DTD SVG 20010904//EN"
 "http://www.w3.org/TR/2001/REC-SVG-20010904/DTD/svg10.dtd">
<svg version="1.0" xmlns="http://www.w3.org/2000/svg"
 width="512.000000pt" height="512.000000pt" viewBox="0 0 512.000000 512.000000"
 preserveAspectRatio="xMidYMid meet">
<metadata>
Created by potrace 1.11, written by Peter Selinger 2001-2013
</metadata>
<g transform="translate(0.000000,512.000000) scale(0.100000,-0.100000)"
fill="#000000" stroke="none">
<path d="M2380 4887 c-3 -3 -39 -8 -79 -11 -41 -4 -78 -9 -81 -11 -3 -2 -26
-6 -50 -10 -155 -23 -378 -98 -563 -190 -103 -52 -304 -178 -352 -222 -11 -10
-33 -29 -50 -41 -34 -27 -183 -170 -236 -228 -122 -134 -264 -358 -346 -544
-61 -139 -122 -323 -125 -377 0 -5 -4 -18 -9 -30 -5 -13 -11 -44 -14 -70 -4
-27 -8 -55 -10 -63 -19 -72 -26 -368 -12 -505 5 -44 10 -82 12 -85 1 -3 6 -32
9 -65 4 -33 9 -71 11 -85 2 -14 6 -41 9 -60 27 -198 49 -353 61 -430 2 -14 11
-78 20 -142 9 -65 18 -125 19 -135 4 -17 18 -118 21 -138 2 -23 18 -131 21
-147 1 -9 5 -38 9 -65 4 -26 9 -59 11 -73 2 -14 6 -42 9 -62 3 -21 7 -55 10
-75 3 -21 7 -49 10 -63 4 -25 7 -46 20 -145 21 -168 81 -293 194 -405 128
-127 272 -183 452 -176 113 5 133 9 227 47 89 35 141 70 209 140 75 77 128
165 152 254 17 61 23 67 55 56 14 -6 37 -13 49 -15 12 -2 40 -9 62 -14 22 -6
60 -14 85 -17 25 -3 52 -8 60 -10 37 -10 186 -19 305 -20 145 0 239 7 365 29
112 20 123 22 205 46 39 11 78 22 88 25 70 16 291 114 391 172 484 281 839
728 990 1248 64 223 85 384 81 630 -4 184 -5 196 -31 350 -122 717 -656 1353
-1345 1603 -155 56 -304 95 -414 108 -22 3 -51 7 -65 11 -30 6 -434 15 -440
10z m405 -432 c28 -3 100 -17 161 -30 623 -136 1113 -610 1274 -1231 24 -96
26 -105 35 -174 4 -29 9 -62 11 -74 6 -26 6 -325 0 -334 -2 -4 -7 -34 -10 -67
-15 -141 -71 -331 -138 -473 -23 -48 -42 -89 -42 -92 -2 -6 -26 -45 -92 -147
-96 -147 -216 -274 -394 -416 -8 -7 -37 -27 -65 -44 -27 -18 -55 -37 -61 -42
-21 -17 -189 -100 -265 -130 -70 -27 -159 -56 -205 -66 -11 -2 -50 -10 -89
-19 -223 -47 -530 -40 -755 19 -74 19 -176 51 -205 64 -82 37 -103 44 -141 46
-110 8 -209 -73 -229 -184 -17 -96 -47 -240 -55 -267 -13 -39 -64 -88 -112
-108 -96 -40 -207 3 -252 98 -15 33 -21 65 -40 216 -4 30 -9 62 -11 70 -2 8
-7 39 -10 69 -4 30 -8 62 -10 72 -2 9 -6 39 -10 66 -4 26 -8 59 -10 73 -2 14
-6 45 -10 70 -3 25 -8 56 -10 70 -2 14 -7 45 -10 70 -4 25 -8 56 -10 70 -4 24
-61 426 -69 485 -12 86 -19 132 -22 149 -2 10 -6 44 -9 75 -4 31 -8 63 -10 71
-3 8 -7 38 -10 65 -3 28 -12 93 -19 145 -21 153 -12 348 25 510 6 25 12 52 14
61 12 57 53 178 89 259 87 198 202 366 356 521 325 327 760 503 1220 494 80
-2 168 -6 195 -10z"/>
<path d="M2385 3597 c-44 -14 -92 -53 -122 -98 -28 -43 -34 -107 -20 -204 4
-27 12 -86 17 -130 6 -44 15 -109 20 -145 6 -36 12 -85 15 -110 9 -96 17 -127
47 -170 38 -58 89 -87 163 -95 49 -6 65 -3 110 19 83 41 133 132 120 221 -9
65 -14 100 -20 150 -4 28 -10 77 -15 110 -5 33 -12 83 -15 110 -3 28 -8 61
-10 75 -2 14 -7 45 -10 69 -8 56 -21 89 -51 129 -48 62 -152 94 -229 69z"/>
<path d="M3256 3547 c-53 -13 -121 -82 -136 -138 -10 -37 -6 -181 5 -200 2 -3
6 -32 10 -65 3 -32 7 -66 10 -74 2 -8 7 -37 10 -64 11 -96 28 -139 73 -182 94
-90 252 -74 327 34 26 38 30 53 31 115 1 40 -5 106 -12 147 -7 41 -16 102 -19
135 -13 117 -32 186 -62 223 -55 67 -143 93 -237 69z"/>
</g>
</svg>
