<?xml version="1.0" encoding="UTF-8"?>
<svg viewBox="0 0 442.78 83.21" xmlns="http://www.w3.org/2000/svg">
    <g fill="#192b42">
        <path d="m129 32.37c0 8.37-6.31 14.48-14.8 14.48h-6v9a2 2 0 0 1 -2 2h-7a2 2 0 0 1 -2-2v-35.91a2 2 0 0 1 2-2h15c8.51 0 14.8 6.06 14.8 14.43zm-11.31 0a4.58 4.58 0 0 0 -4.81-4.84h-4.66v9.69h4.66a4.59 4.59 0 0 0 4.83-4.83z"/>
        <path d="m164 39.32v16.56a2 2 0 0 1 -2 2h-6.61a2 2 0 0 1 -2-2v-15.32c0-3.56-1.25-5.37-4-5.37-3.21 0-5.21 2.28-5.21 6.23v14.46a2 2 0 0 1 -2 2h-6.68a2 2 0 0 1 -2-2v-37.94a2 2 0 0 1 2-2h6.61a2 2 0 0 1 2 2v11.14s0 0 0 0a13.16 13.16 0 0 1 8.21-2.92c7.09 0 11.68 5.18 11.68 13.16z"/>
        <path d="m204.45 42.47c0 9.6-6.73 16.45-16.15 16.45a14.32 14.32 0 0 1 -7.51-2.05v10.13a2 2 0 0 1 -2 2h-6.49a2 2 0 0 1 -2-2v-37.93a2 2 0 0 1 2-2h4.31a1.52 1.52 0 0 1 1.34.79l.89 1.66a14.25 14.25 0 0 1 9.46-3.46c9.42 0 16.15 6.81 16.15 16.41zm-10.67 0a6.9 6.9 0 1 0 -13.8 0 6.9 6.9 0 1 0 13.8 0z"/>
        <path d="m209 42.43v-22.49a2 2 0 0 1 2-2h7.25a2 2 0 0 1 2 2v22.28c0 3.91 2.51 6.43 6.19 6.43s6.19-2.52 6.19-6.43v-22.28a2 2 0 0 1 2-2h7.24a2 2 0 0 1 2 2v22.49c0 9.82-7.25 16.46-17.43 16.46s-17.44-6.64-17.44-16.46z"/>
        <path d="m280.57 39.09v16.79a2 2 0 0 1 -2 2h-6.57a2 2 0 0 1 -2-2v-15.32c0-3.59-1.35-5.37-4-5.37-3.31 0-5.21 2.31-5.21 6.23v14.46a2 2 0 0 1 -2 2h-6.61a2 2 0 0 1 -2-2v-26.81a2 2 0 0 1 2-2h5.44l1.38 3.17a12.84 12.84 0 0 1 9.7-4.08c7.17 0 11.87 5.08 11.87 12.93z"/>
        <path d="m288.92 27.07h6.61a2 2 0 0 1 2 2v26.81a2 2 0 0 1 -2 2h-8.61v-28.81a2 2 0 0 1 2-2zm.08-12.86h6.45a2 2 0 0 1 2 2v5a2 2 0 0 1 -2 2h-8.45v-7a2 2 0 0 1 2-2z"/>
        <path d="m325 50.46v5.54a1.88 1.88 0 0 1 -1.87 1.88h-5.43c-6.81 0-10.95-4.17-10.95-11v-11.64h-3.75a1.88 1.88 0 0 1 -1.88-1.88 1.55 1.55 0 0 1 .41-1l12.94-13.78a1.55 1.55 0 0 1 1.11-.48h1.52v9h5.87a1.88 1.88 0 0 1 1.84 1.9v4.41a1.88 1.88 0 0 1 -1.87 1.88h-5.6v9.71a3.27 3.27 0 0 0 3.57 3.54h2.2a1.88 1.88 0 0 1 1.89 1.92z"/>
        <path d="m370.72 36.53c0 13.07-8.53 22.36-21 22.36-12.23 0-21.27-8.8-21.27-21s8.87-21 21.17-21c9.45 0 17.35 5.34 20 13.2a2 2 0 0 1 -1.9 2.63h-7.72a2 2 0 0 1 -1.72-1 9.9 9.9 0 0 0 -8.59-4.54c-6 0-10 4.33-10 10.71s4 10.64 10 10.64c4.2 0 7.8-2 9.06-5.11h-7.92a2 2 0 0 1 -2-2v-2.89a2 2 0 0 1 2-2z"/>
        <path d="m407.5 42.18a19.21 19.21 0 0 1 -.22 2.81h-22.87c.69 3.53 2.93 5.36 6.28 5.36a6.17 6.17 0 0 0 5.57-2.89h7.58a2 2 0 0 1 1.79 2.89c-2.81 5.33-8.33 8.54-14.94 8.54-9.61 0-16.73-7-16.73-16.44s7.04-16.39 16.73-16.39c9.93 0 16.81 7.08 16.81 16.12zm-22.91-3.07h12.46a6.2 6.2 0 0 0 -6.36-4.74 6 6 0 0 0 -6.1 4.74z"/>
        <path d="m442.78 39.09v16.79a2 2 0 0 1 -2 2h-6.61a2 2 0 0 1 -2-2v-15.32c0-3.59-1.35-5.37-4-5.37-3.31 0-5.21 2.31-5.21 6.23v14.46a2 2 0 0 1 -2 2h-6.61a2 2 0 0 1 -2-2v-26.81a2 2 0 0 1 2-2h5.44l1.46 3.17a12.84 12.84 0 0 1 9.7-4.08c7.13 0 11.83 5.08 11.83 12.93z"/>
        <path d="m15.91 83.21a11.18 11.18 0 0 1 -11.09-9.66c-1.1-7.55-4.73-32.38-4.82-34.43a37.76 37.76 0 1 1 26.94 34.95v.09a11.16 11.16 0 0 1 -10.61 9zm21.94-75.57h-1.06a30.18 30.18 0 0 0 -29.13 31.22c.11 1.73 3 21.54 4.72 33.61a3.58 3.58 0 0 0 7 .22l.88-4.5a3.83 3.83 0 0 1 2-2.65 3.77 3.77 0 0 1 3.31-.1 29.78 29.78 0 0 0 13.29 2.56 30.18 30.18 0 0 0 -1-60.35z"/>
        <path d="m37 40.18a3.83 3.83 0 0 1 -3.78-3.3l-1.22-9.29a3.82 3.82 0 1 1 7.56-1l1.28 9.29a3.81 3.81 0 0 1 -3.26 4.3 3.15 3.15 0 0 1 -.58 0z"/>
        <path d="m52.27 38a3.81 3.81 0 0 1 -3.77-3.29l-.93-6.63a3.82 3.82 0 0 1 7.56-1.06l.93 6.63a3.81 3.81 0 0 1 -3.25 4.35 3.27 3.27 0 0 1 -.54 0z"/>
    </g>
</svg>
