<?xml version="1.0" encoding="UTF-8"?>
<svg version="1.1" viewBox="0 0 1428 174" xmlns="http://www.w3.org/2000/svg">
    <g fill="000000">
        <g transform="translate(-2 44)">
            <path d="m0 0c90.728 0.92753 147.91 27.188 291.91 59.912 95.998 21.816 251.69 29.423 467.09 22.821-289.66 73.522-542.66 70.935-759-7.7594"
                  opacity=".3"/>
            <path d="m100 104.71c177.41-32.474 326.15-52.184 446.2-59.13 120.06-6.946 264.32-3.7808 432.8 9.4955-47.93 1.0483-168.7 19.771-362.3 56.169-193.6 36.398-365.84 34.219-516.7-6.5347z"
                  opacity=".3"/>
            <path d="m1046 51.652c84.83-22.323 233.08-34.044 393-11.486v79.834c-167.83-42.056-298.83-64.839-393-68.348z"
                  opacity=".4"/>
        </g>
        <g transform="translate(-4 76)">
            <path d="m0.457 34.035c56.629 19.163 97.751 31.774 123.36 37.83 57.632 13.63 110.47 18.425 148.21 21.594 39.322 3.3 124.6 2.342 188.99-1.796 25.735-1.653 57.702-5.291 95.901-10.911 38.821-6.156 65.446-10.744 79.873-13.761 27.114-5.667 75.702-17.488 90.806-20.863 52.865-11.811 91.234-23.596 128.72-30.224 66.365-11.735 99.352-13.382 154.86-15.472 49.52 1.045 86.205 2.697 110.05 4.955 40.467 3.832 87.385 12.434 114.16 16.917 50.455 8.444 118.95 25.128 205.49 50.05l0.305 31.998-1440.1-0.321-0.664-69.996z"/>
        </g>
    </g>
</svg>
