<svg viewBox="0 0 75.65 83.21" xmlns="http://www.w3.org/2000/svg"><g fill="#fff"><path d="m15.91 83.21a11.18 11.18 0 0 1 -11.09-9.66c-1.1-7.55-4.73-32.38-4.82-34.43a37.76 37.76 0 1 1 26.94 34.95v.09a11.16 11.16 0 0 1 -10.61 9zm21.94-75.57h-1.06a30.18 30.18 0 0 0 -29.13 31.22c.11 1.73 3 21.54 4.72 33.61a3.58 3.58 0 0 0 7 .22l.88-4.5a3.83 3.83 0 0 1 2-2.65 3.77 3.77 0 0 1 3.31-.1 29.78 29.78 0 0 0 13.29 2.56 30.18 30.18 0 0 0 -1-60.35z"/><path d="m37 40.18a3.83 3.83 0 0 1 -3.78-3.3l-1.22-9.29a3.82 3.82 0 1 1 7.56-1l1.28 9.29a3.81 3.81 0 0 1 -3.26 4.3 3.15 3.15 0 0 1 -.58 0z"/><path d="m52.27 38a3.81 3.81 0 0 1 -3.77-3.29l-.93-6.63a3.82 3.82 0 0 1 7.56-1.06l.93 6.63a3.81 3.81 0 0 1 -3.25 4.35 3.27 3.27 0 0 1 -.54 0z"/></g></svg>